<svg width="18.000000" height="18.000000" viewBox="0 0 18 18" fill="none" xmlns="http://www.w3.org/2000/svg" xmlns:xlink="http://www.w3.org/1999/xlink">
	<desc>
			Created with Pixso.
	</desc>
	<defs>
		<clipPath id="clip3_1354">
			<rect id="icon-user" width="18.000000" height="18.000000" fill="white" fill-opacity="0"/>
		</clipPath>
	</defs>
	<rect id="icon-user" width="18.000000" height="18.000000" fill="#FFFFFF" fill-opacity="0"/>
	<g clip-path="url(#clip3_1354)">
		<path id="Vector" d="M12.418 10.481L5.58203 10.481C2.50391 10.481 0 11.5243 0 12.8068L0 17.5159C0 17.7727 0.5 17.981 1.11621 17.981L16.8838 17.981C17.5 17.981 18 17.7727 18 17.5159L18 12.8068C18 11.5243 15.4961 10.481 12.418 10.481Z" fill="#474747" fill-opacity="1.000000" fill-rule="nonzero"/>
		<path id="Vector" d="M9.00439 0C6.75098 0 4.91797 1.83313 4.91797 4.0863C4.91797 5.61462 5.76172 6.94934 7.00732 7.65015C7.59814 7.98254 8.2793 8.17249 9.00439 8.17249C9.729 8.17249 10.4102 7.98254 11.001 7.65015C12.2471 6.94934 13.0903 5.61462 13.0903 4.0863C13.0903 1.83313 11.2573 0 9.00439 0Z" fill="#474747" fill-opacity="1.000000" fill-rule="nonzero"/>
	</g>
</svg>
