<svg width="18.000000" height="18.000000" viewBox="0 0 18 18" fill="none" xmlns="http://www.w3.org/2000/svg" xmlns:xlink="http://www.w3.org/1999/xlink">
	<desc>
			Created with Pixso.
	</desc>
	<defs>
		<clipPath id="clip3_934">
			<rect id="icon-additional-information" width="18.000000" height="18.000000" fill="white" fill-opacity="0"/>
		</clipPath>
	</defs>
	<rect id="icon-additional-information" width="18.000000" height="18.000000" fill="#FFFFFF" fill-opacity="0"/>
	<g clip-path="url(#clip3_934)">
		<path id="Vector" d="M18 9C18 13.9706 13.9707 18 9 18C4.0293 18 0 13.9706 0 9C0 4.02942 4.0293 0 9 0C13.9707 0 18 4.02942 18 9Z" fill="#474747" fill-opacity="1.000000" fill-rule="nonzero"/>
		<path id="Vector" d="M9 16.0312C5.12305 16.0312 1.96875 12.8771 1.96875 9C1.96875 5.12292 5.12305 1.96875 9 1.96875C12.877 1.96875 16.0312 5.12292 16.0312 9C16.0312 12.8771 12.877 16.0312 9 16.0312ZM9 3.02344C5.70459 3.02344 3.02344 5.70447 3.02344 9C3.02344 12.2955 5.70459 14.9766 9 14.9766C12.2954 14.9766 14.9766 12.2955 14.9766 9C14.9766 5.70447 12.2954 3.02344 9 3.02344Z" fill="#FFFFFF" fill-opacity="1.000000" fill-rule="nonzero"/>
		<circle id="Ellipse 144" cx="9.000000" cy="9.000122" r="7.714286" fill="#474747" fill-opacity="1.000000"/>
		<path id="Vector" d="M9 12.48C8.7085 12.48 8.47266 12.2439 8.47266 11.9526L8.47266 8.4032C8.47266 8.11206 8.7085 7.87585 9 7.87585C9.2915 7.87585 9.52734 8.11206 9.52734 8.4032L9.52734 11.9526C9.52734 12.2439 9.2915 12.48 9 12.48Z" fill="#FFFFFF" fill-opacity="1.000000" fill-rule="nonzero"/>
		<path id="Vector" d="M9.74414 6.43298C9.74414 6.84387 9.41064 7.177 9 7.177C8.58887 7.177 8.25586 6.84387 8.25586 6.43298C8.25586 6.02197 8.58887 5.68896 9 5.68896C9.41064 5.68896 9.74414 6.02197 9.74414 6.43298Z" fill="#FFFFFF" fill-opacity="1.000000" fill-rule="nonzero"/>
	</g>
</svg>
