<svg width="30.000000" height="30.000000" viewBox="0 0 30 30" fill="none" xmlns="http://www.w3.org/2000/svg" xmlns:xlink="http://www.w3.org/1999/xlink">
	<desc>
			Created with Pixso.
	</desc>
	<defs>
		<clipPath id="clip3_972">
			<rect id="shopping-bag (3) 2" width="25.000000" height="27.000000" transform="translate(2.500000 1.500000)" fill="white" fill-opacity="0"/>
		</clipPath>
		<clipPath id="clip3_971">
			<rect id="shopping-bag" width="30.000000" height="30.000000" fill="white" fill-opacity="0"/>
		</clipPath>
	</defs>
	<g clip-path="url(#clip3_971)">
		<rect id="shopping-bag (3) 2" width="25.000000" height="27.000000" transform="translate(2.500000 1.500000)" fill="#FFFFFF" fill-opacity="0"/>
		<g clip-path="url(#clip3_972)">
			<path id="Vector" d="M25.334 27.3722L23.8125 9.07532C23.771 8.57568 23.3833 8.19287 22.9189 8.19287L19.7817 8.19287L19.7817 6.66479C19.7817 3.81689 17.6367 1.5 15 1.5C12.3633 1.5 10.2183 3.81689 10.2183 6.66479L10.2183 8.19287L7.0791 8.19287C6.61426 8.19287 6.22656 8.57568 6.18506 9.07532L4.65771 27.4442C4.63525 27.7153 4.71924 27.9839 4.88916 28.1847C5.05957 28.3855 5.2998 28.4999 5.55176 28.4999L24.4463 28.4999C24.4473 28.4999 24.4482 28.4999 24.4487 28.4999C24.9443 28.4999 25.3462 28.0659 25.3462 27.5308C25.3462 27.4769 25.3418 27.4238 25.334 27.3722ZM12.0127 6.66479C12.0127 4.88562 13.353 3.43823 15 3.43823C16.647 3.43823 17.9873 4.88562 17.9873 6.66479L17.9873 8.19287L12.0127 8.19287L12.0127 6.66479ZM6.5332 26.5618L7.89941 10.1311L10.2183 10.1311L10.2183 11.8641C10.2183 12.3994 10.6196 12.8333 11.1157 12.8333C11.6113 12.8333 12.0127 12.3994 12.0127 11.8641L12.0127 10.1311L17.9873 10.1311L17.9873 11.8641C17.9873 12.3994 18.3892 12.8333 18.8848 12.8333C19.3804 12.8333 19.7817 12.3994 19.7817 11.8641L19.7817 10.1311L22.0986 10.1311L23.4648 26.5618L6.5332 26.5618Z" fill="#222222" fill-opacity="1.000000" fill-rule="nonzero"/>
		</g>
	</g>
</svg>
