<svg width="30.000000" height="30.000000" viewBox="0 0 30 30" fill="none" xmlns="http://www.w3.org/2000/svg" xmlns:xlink="http://www.w3.org/1999/xlink">
	<desc>
			Created with Pixso.
	</desc>
	<defs>
		<clipPath id="clip3_983">
			<rect id="delivery" width="30.000000" height="30.000000" fill="white" fill-opacity="0"/>
		</clipPath>
	</defs>
	<rect id="delivery" width="30.000000" height="30.000000" fill="#FFFFFF" fill-opacity="0"/>
	<g clip-path="url(#clip3_983)">
		<path id="Vector" d="M22.6577 17.8362C20.5723 17.8362 18.876 19.5325 18.876 21.6177C18.876 23.7029 20.5723 25.3992 22.6577 25.3992C24.7432 25.3992 26.439 23.7029 26.439 21.6177C26.439 19.5325 24.7427 17.8362 22.6577 17.8362ZM22.6577 23.5084C21.6147 23.5084 20.7666 22.6604 20.7666 21.6177C20.7666 20.575 21.6147 19.7269 22.6577 19.7269C23.7002 19.7269 24.5483 20.575 24.5483 21.6177C24.5483 22.6605 23.7002 23.5084 22.6577 23.5084Z" fill="#222222" fill-opacity="1.000000" fill-rule="nonzero"/>
		<path id="Vector" d="M9.73779 17.8362C7.65234 17.8362 5.95605 19.5325 5.95605 21.6177C5.95605 23.7029 7.65234 25.3992 9.73779 25.3992C11.8228 25.3992 13.519 23.7029 13.519 21.6177C13.519 19.5325 11.8228 17.8362 9.73779 17.8362ZM9.73779 23.5084C8.69482 23.5084 7.84668 22.6604 7.84668 21.6177C7.84668 20.575 8.69482 19.7269 9.73779 19.7269C10.7798 19.7269 11.6284 20.575 11.6284 21.6177C11.6284 22.6605 10.7803 23.5084 9.73779 23.5084Z" fill="#222222" fill-opacity="1.000000" fill-rule="nonzero"/>
		<path id="Vector" d="M25.2041 7.01221C25.0435 6.69299 24.7168 6.49158 24.3594 6.49158L19.3804 6.49158L19.3804 8.38232L23.7764 8.38232L26.3506 13.5024L28.0405 12.6528L25.2041 7.01221Z" fill="#222222" fill-opacity="1.000000" fill-rule="nonzero"/>
		<path id="Vector" d="M12.668 20.7036L19.8213 20.7036L19.8213 22.5944L12.668 22.5944L12.668 20.7036Z" fill="#222222" fill-opacity="1.000000" fill-rule="evenodd"/>
		<path id="Vector" d="M6.90137 20.7036L3.62402 20.7036C3.10205 20.7036 2.67871 21.1268 2.67871 21.6489C2.67871 22.1711 3.10205 22.5944 3.62402 22.5944L6.90137 22.5944C7.42334 22.5944 7.84668 22.1711 7.84668 21.6489C7.84668 21.1268 7.42334 20.7036 6.90137 20.7036Z" fill="#222222" fill-opacity="1.000000" fill-rule="nonzero"/>
		<path id="Vector" d="M29.8018 14.9243L27.9419 12.5294C27.7632 12.2987 27.4878 12.1638 27.1953 12.1638L20.3257 12.1638L20.3257 5.54614C20.3257 5.02405 19.9023 4.60083 19.3804 4.60083L3.62402 4.60083C3.10205 4.60083 2.67871 5.02405 2.67871 5.54614C2.67871 6.06836 3.10205 6.49158 3.62402 6.49158L18.4351 6.49158L18.4351 13.1091C18.4351 13.6313 18.8584 14.0546 19.3804 14.0546L26.7324 14.0546L28.1094 15.828L28.1094 20.7037L25.4937 20.7037C24.9717 20.7037 24.5483 21.127 24.5483 21.649C24.5483 22.1713 24.9717 22.5944 25.4937 22.5944L29.0547 22.5944C29.5767 22.5944 30 22.1711 30 21.649L30 15.5042C30 15.2943 29.9302 15.0901 29.8018 14.9243Z" fill="#222222" fill-opacity="1.000000" fill-rule="nonzero"/>
		<path id="Vector" d="M6.83789 15.9138L2.48926 15.9138C1.96729 15.9138 1.54395 16.337 1.54395 16.8591C1.54395 17.3813 1.96729 17.8046 2.48926 17.8046L6.83789 17.8046C7.36035 17.8046 7.7832 17.3813 7.7832 16.8591C7.7832 16.337 7.36035 15.9138 6.83789 15.9138Z" fill="#222222" fill-opacity="1.000000" fill-rule="nonzero"/>
		<path id="Vector" d="M9.0127 12.1954L0.945312 12.1954C0.42334 12.1954 0 12.6187 0 13.1409C0 13.6631 0.42334 14.0862 0.945312 14.0862L9.0127 14.0862C9.53467 14.0862 9.95801 13.663 9.95801 13.1409C9.95801 12.6188 9.53467 12.1954 9.0127 12.1954Z" fill="#222222" fill-opacity="1.000000" fill-rule="nonzero"/>
		<path id="Vector" d="M10.5566 8.47693L2.48926 8.47693C1.96729 8.47693 1.54395 8.90015 1.54395 9.42224C1.54395 9.94446 1.96729 10.3677 2.48926 10.3677L10.5566 10.3677C11.0786 10.3677 11.502 9.94446 11.502 9.42224C11.502 8.90015 11.0786 8.47693 10.5566 8.47693Z" fill="#222222" fill-opacity="1.000000" fill-rule="nonzero"/>
	</g>
</svg>
